<svg xmlns="http://www.w3.org/2000/svg" viewBox="300 370 1450 1020">
<defs>
	<linearGradient gradientUnits="userSpaceOnUse" id="Gradient1" x1="924.961" x2="444.526" y1="630.39" y2="603.582">
		<stop offset="0" stop-color="rgb(63,24,209)" stop-opacity="1"></stop>
		<stop offset="1" stop-color="rgb(44,168,243)" stop-opacity="1"></stop>
	</linearGradient>
	<linearGradient gradientUnits="userSpaceOnUse" id="Gradient2" x1="920.787" x2="679.014" y1="1236.18" y2="1107.97">
		<stop offset="0" stop-color="rgb(62,26,163)" stop-opacity="1"></stop>
		<stop offset="1" stop-color="rgb(124,48,213)" stop-opacity="1"></stop>
	</linearGradient>
	<linearGradient gradientUnits="userSpaceOnUse" id="Gradient3" x1="1012.19" x2="1284.56" y1="538.215" y2="742.894">
		<stop offset="0" stop-color="rgb(255,149,243)" stop-opacity="1"></stop>
		<stop offset="1" stop-color="rgb(165,45,247)" stop-opacity="1"></stop>
	</linearGradient>
</defs>
<path d="M 1398.6 402.553 C 1446.35 398.668 1473.27 431.423 1454.75 477.152 C 1444.66 502.066 1436.45 529.422 1425.82 554.158 C 1470.73 554.646 1515.65 554.796 1560.56 554.609 C 1573.76 554.593 1615.62 553.643 1626.42 556.036 C 1640.39 559.255 1653.13 566.473 1663.06 576.808 C 1688.39 603.403 1690.43 653.793 1669.8 683.506 C 1661.58 695.337 1649.36 708.588 1639.82 719.794 C 1620.32 742.769 1600.67 765.618 1580.88 788.339 C 1515.28 865.385 1449.18 941.989 1382.56 1018.15 C 1314.81 1097.9 1246.61 1177.26 1177.94 1256.22 C 1164.85 1271.11 1151.97 1286.19 1139.3 1301.45 C 1114.48 1330.87 1098.62 1349.67 1056.71 1348.3 C 1013.82 1346.9 993.079 1316.04 965.519 1287.97 C 946.563 1268.66 923.621 1247.66 906.353 1227.36 C 922.009 1209.61 938.708 1192.88 954.404 1175.13 C 972.952 1154.15 972.562 1123.54 950.109 1105.73 C 942.666 1097.63 932.982 1088.41 925.064 1080.53 C 914.28 1064.34 889.309 1053.5 906.443 1030.88 C 919.141 1014.12 938.587 1001.87 950.952 985.198 C 966.839 966.82 980.093 946.69 984.887 922.634 C 985.987 879.515 954.51 855.721 922.302 832.32 C 916.067 836.216 909.541 834.478 902.803 832.61 C 892.532 823.979 887.465 819.243 879.024 808.874 L 884.391 804.899 C 884.114 804.533 876.844 797.196 875.816 796.219 C 867.045 787.89 861.162 773.065 858.997 760.775 C 848.56 699.288 876.908 637.631 911.094 588.072 C 918.521 577.306 930.325 568.693 937.088 557.627 L 939.146 555.161 C 942.433 553.893 957.692 540.99 961.838 537.676 C 998.163 508.638 1040.37 500.458 1083.89 487.861 C 1114.68 478.95 1146.69 471.022 1178.12 462.689 C 1251.45 443.254 1324.76 419.974 1398.6 402.553 z" fill="rgb(51,28,102)"></path>
<path d="M 1130.95 1157.45 C 1152.96 1089.44 1180.28 1020.33 1202.76 952.273 C 1215.02 915.179 1227.66 878.887 1241.4 842.33 C 1249.82 819.902 1257.59 790.094 1267.34 768.826 C 1267.49 772.707 1266.8 774.567 1265.7 778.323 C 1274.53 778.452 1281.06 786.139 1289.26 785.514 L 1289.5 782.608 C 1292.6 780.806 1328.38 782.39 1334.3 783.944 C 1338.96 793.613 1330.9 800.513 1333.4 807.123 C 1316.84 861.215 1295.55 915.592 1277.78 968.723 C 1243.91 1070.05 1241.41 1116.9 1130.95 1157.45 z" fill="rgb(207,52,233)"></path>
<path d="M 1351.91 537.613 C 1361.95 550.941 1361.49 543.763 1372.04 551.657 C 1385.79 561.937 1405.99 586.89 1404.15 605.149 C 1403.43 612.235 1396.92 619.29 1396.73 631.526 C 1394.42 639.784 1391.06 647.583 1388.26 655.656 C 1372.16 702.028 1354.46 747.766 1338.07 794.019 C 1336.54 798.326 1335.1 802.904 1333.4 807.123 C 1330.9 800.513 1338.96 793.613 1334.3 783.944 C 1328.38 782.39 1292.6 780.806 1289.5 782.608 L 1289.26 785.514 C 1281.06 786.139 1274.53 778.452 1265.7 778.323 C 1266.8 774.567 1267.49 772.707 1267.34 768.826 C 1267.95 764.99 1273.07 751.595 1274.66 747.156 C 1281.2 729.043 1287.86 710.973 1294.63 692.946 C 1308.13 656.098 1321.39 614.259 1335.42 578.283 C 1341.32 571.953 1347.88 547.024 1351.91 537.613 z" fill="rgb(251,38,182)"></path>
<path d="M 1398.6 402.553 C 1446.35 398.668 1473.27 431.423 1454.75 477.152 C 1444.66 502.066 1436.45 529.422 1425.82 554.158 C 1414.35 578.346 1407.07 606.978 1396.73 631.526 C 1396.92 619.29 1403.43 612.235 1404.15 605.149 C 1405.99 586.89 1385.79 561.937 1372.04 551.657 C 1361.49 543.763 1361.95 550.941 1351.91 537.613 C 1347.88 547.024 1341.32 571.953 1335.42 578.283 C 1339.69 561.307 1355.86 521.754 1362.58 503.438 C 1373.73 473.059 1385.66 430.869 1398.6 402.553 z" fill="rgb(240,17,122)"></path>
<path d="M 884.391 804.899 C 895.076 813.816 913.89 824.243 922.302 832.32 C 916.067 836.216 909.541 834.478 902.803 832.61 C 892.532 823.979 887.465 819.243 879.024 808.874 L 884.391 804.899 z" fill="rgb(90,34,195)"></path>
<path d="M 1215.62 503.71 C 1253.92 494.391 1279.2 486.784 1316.84 475.542 L 1205.24 792.485 C 1196.54 816.965 1188.04 841.516 1179.75 866.136 C 1177.18 873.566 1171.38 892.111 1168.48 898.154 C 1165.93 907.713 1161 920.719 1157.7 930.26 L 1133.3 998.629 C 1111.73 1058.72 1090.83 1119.05 1070.6 1179.61 C 1072.06 1163.9 1071.74 1136.44 1072 1119.69 C 1073.17 1045.03 1070.54 967.684 1043.99 897.06 C 1023.5 850.782 995.748 818.743 955.452 788.417 C 946.021 781.319 933.808 776.143 924.899 768.66 C 921.289 766.581 918.08 763.875 915.421 760.668 C 906.775 750.234 908.034 737.473 908.874 724.982 C 915.691 655.54 966.751 580.753 1032.73 555.419 C 1052.78 547.72 1076.6 541.944 1097.43 536.278 C 1136.93 525.537 1176.4 515.488 1215.62 503.71 z" fill="rgb(168,55,240)"></path>
<path d="M 1215.62 503.71 C 1253.92 494.391 1279.2 486.784 1316.84 475.542 L 1205.24 792.485 C 1196.54 816.965 1188.04 841.516 1179.75 866.136 C 1177.18 873.566 1171.38 892.111 1168.48 898.154 L 1168.2 897.826 C 1167.13 890.823 1177.98 871.535 1178.04 863.464 C 1172.89 862.746 1134.27 915.344 1119.48 908.665 C 1131.33 864.355 1154.95 808.156 1170.5 764.129 L 1255.77 517.228 C 1248.01 519.008 1235.1 524.345 1227.05 527.294 L 1200.8 537.354 C 1178.2 543.37 1023.25 615.502 1012.68 627.06 C 978.345 647.159 953.246 668.424 927.673 699.187 C 922.852 704.987 912.776 721.745 908.874 724.982 C 915.691 655.54 966.751 580.753 1032.73 555.419 C 1052.78 547.72 1076.6 541.944 1097.43 536.278 C 1136.93 525.537 1176.4 515.488 1215.62 503.71 z" fill="url(#Gradient3)"></path>
<path d="M 1012.68 627.06 C 1007.66 637.289 961.718 652.615 972.758 666.201 C 976.014 665.612 978.831 661.529 982.351 658.926 C 973.117 680.989 950.563 706.3 935.977 725.154 C 927.457 736.166 923.91 744.341 914.518 755.527 C 917.511 761.52 922.936 763.387 924.899 768.66 C 921.289 766.581 918.08 763.875 915.421 760.668 C 906.775 750.234 908.034 737.473 908.874 724.982 C 912.776 721.745 922.852 704.987 927.673 699.187 C 953.246 668.424 978.345 647.159 1012.68 627.06 z" fill="rgb(207,52,233)"></path>
<path d="M 902.803 832.61 C 909.541 834.478 916.067 836.216 922.302 832.32 C 954.51 855.721 985.987 879.515 984.887 922.634 C 980.093 946.69 966.839 966.82 950.952 985.198 C 938.587 1001.87 919.141 1014.12 906.443 1030.88 C 889.309 1053.5 914.28 1064.34 925.064 1080.53 C 900.315 1082.46 869.135 1080.96 843.718 1080.96 L 689.075 1080.97 L 589.955 1080.99 C 574.632 1080.99 545.827 1082.49 532.865 1079.45 C 495.989 1070.8 480.02 1021.79 509.517 995.159 C 529.462 977.153 545.27 980.828 568.647 980.812 L 621.289 980.763 C 677.84 980.712 740.383 979.246 796.266 980.993 C 806.014 979.963 834.965 980.752 846.545 980.762 L 951.189 980.879 C 936.707 949.817 920.908 953.9 890.909 953.899 L 843.398 953.919 C 783.439 953.95 714.099 955.149 654.772 953.106 C 649.923 953.762 635.228 953.391 629.751 953.385 L 581.122 953.36 L 495.904 953.284 C 478.382 953.257 460.948 953.494 443.454 952.297 C 414.382 950.308 396.256 930.92 389.464 903.704 C 388.225 900.72 387.998 889.715 388.167 886.177 C 389.228 864.237 409.672 839.661 432.051 836.705 C 450.995 834.203 472.868 835.008 492.299 834.972 L 593.048 834.965 L 688.604 834.676 C 703.206 834.621 726.563 833.869 740.68 834.942 C 776.371 833.753 814.614 835.444 850.507 834.342 C 866.086 833.864 887.855 835.033 902.803 832.61 z" fill="rgb(68,35,138)"></path>
<path d="M 389.464 903.704 C 388.225 900.72 387.998 889.715 388.167 886.177 C 389.228 864.237 409.672 839.661 432.051 836.705 C 450.995 834.203 472.868 835.008 492.299 834.972 L 593.048 834.965 L 688.604 834.676 C 703.206 834.621 726.563 833.869 740.68 834.942 C 748.646 837.8 792.932 836.56 803.97 836.247 C 815.944 862.562 815.13 867.404 804.913 895.512 C 800.502 907.648 797.537 911.619 788.971 921.508 C 766.873 921.448 744.377 921.062 722.32 922.04 C 684.23 923.728 646.039 922.472 607.946 923.671 L 490.203 924.164 C 468.436 924.261 443.495 925.107 422.036 922.341 C 411.861 921.029 399.367 914.707 393.542 906.148 C 392.087 904.01 392.582 904.501 390.575 902.519 L 389.464 903.704 z" fill="rgb(168,55,240)"></path>
<path d="M 902.803 832.61 C 909.541 834.478 916.067 836.216 922.302 832.32 C 954.51 855.721 985.987 879.515 984.887 922.634 C 909.075 923.684 833.256 924.188 757.437 924.147 C 717.443 924.209 669.763 925.592 630.865 924.161 C 627.426 923.553 612.384 923.729 607.946 923.671 C 646.039 922.472 684.23 923.728 722.32 922.04 C 744.377 921.062 766.873 921.448 788.971 921.508 C 797.537 911.619 800.502 907.648 804.913 895.512 C 815.13 867.404 815.944 862.562 803.97 836.247 C 792.932 836.56 748.646 837.8 740.68 834.942 C 776.371 833.753 814.614 835.444 850.507 834.342 C 866.086 833.864 887.855 835.033 902.803 832.61 z" fill="rgb(90,34,195)"></path>
<path d="M 389.464 903.704 L 390.575 902.519 C 392.582 904.501 392.087 904.01 393.542 906.148 C 399.367 914.707 411.861 921.029 422.036 922.341 C 443.495 925.107 468.436 924.261 490.203 924.164 L 607.946 923.671 C 612.384 923.729 627.426 923.553 630.865 924.161 C 639.455 925.996 649.833 924.821 658.644 925.2 C 682.237 926.214 709.123 923.397 732.398 925.876 C 726.694 928.286 716.608 925.742 712.95 930.283 C 714.195 931.765 714.5 932.016 715.256 933.806 L 711.135 934.779 L 711.266 936.27 C 715.372 938.412 719.985 937.622 722.039 940.551 C 728.984 950.457 736.994 944.637 743.103 949.685 L 742.999 951.107 C 736.305 953.106 728.261 951.781 722.367 952.116 C 711.499 952.732 662.141 950.456 654.772 953.106 C 649.923 953.762 635.228 953.391 629.751 953.385 L 581.122 953.36 L 495.904 953.284 C 478.382 953.257 460.948 953.494 443.454 952.297 C 414.382 950.308 396.256 930.92 389.464 903.704 z" fill="rgb(90,34,195)"></path>
<path d="M 950.109 1105.73 C 972.562 1123.54 972.952 1154.15 954.404 1175.13 C 938.708 1192.88 922.009 1209.61 906.353 1227.36 C 896.296 1225.47 876.46 1226.01 865.445 1226.03 L 809.461 1225.99 L 586.567 1225.74 C 548.959 1225.99 511.35 1225.97 473.743 1225.7 C 459.083 1225.6 426.503 1226.31 414.097 1223.57 C 402.753 1221.11 392.356 1215.43 384.146 1207.23 C 361.484 1184.28 361.05 1142.28 384.572 1119.53 C 401.477 1103.18 423.391 1106.6 444.89 1106.43 C 455.884 1106.35 466.909 1106.45 477.925 1106.39 C 508.995 1106.16 540.066 1106.13 571.137 1106.28 C 587.352 1106.34 606.306 1106 622.315 1106.82 C 628.919 1106.16 643.906 1106.59 651.147 1106.62 L 702.97 1106.71 L 867.84 1106.05 C 893.283 1105.94 925.475 1107.11 950.109 1105.73 z" fill="url(#Gradient2)"></path>
<path d="M 586.567 1225.74 C 548.959 1225.99 511.35 1225.97 473.743 1225.7 C 459.083 1225.6 426.503 1226.31 414.097 1223.57 C 402.753 1221.11 392.356 1215.43 384.146 1207.23 C 361.484 1184.28 361.05 1142.28 384.572 1119.53 C 401.477 1103.18 423.391 1106.6 444.89 1106.43 C 455.884 1106.35 466.909 1106.45 477.925 1106.39 C 508.995 1106.16 540.066 1106.13 571.137 1106.28 C 587.352 1106.34 606.306 1106 622.315 1106.82 L 621.157 1106.94 C 614.31 1107.56 574.46 1106.84 572.231 1107.73 C 601.055 1108.73 630.189 1107.82 659.047 1108.34 C 665.232 1108.45 671.651 1108.48 677.813 1108.24 C 691.247 1117.22 693.455 1128.06 685.824 1142.02 C 673.239 1165.04 657.608 1185.91 640.698 1205.88 C 635.507 1212.06 625.797 1216.72 624.198 1223.75 C 592.973 1226.11 551.737 1221.81 517.827 1224.29 C 529.489 1224.77 579.765 1223.97 586.567 1225.74 z" fill="rgb(168,55,240)"></path>
<path d="M 436.461 556.053 C 467.136 554.783 499.677 555.132 530.473 555.055 L 676.282 554.985 L 835.428 555.138 C 869.681 555.081 904.968 554.508 939.146 555.161 L 937.088 557.627 C 895.758 575.538 853.322 621.233 831.805 660.376 C 829.457 664.648 823.465 678.685 821.37 681.163 C 797.664 680.397 771.159 680.89 747.221 680.862 L 611.268 680.637 L 609.906 680.662 C 555.963 681.295 501.795 680.152 447.829 680.828 C 437.046 680.963 426.338 681.261 415.749 679.049 C 365.051 668.459 354.495 606.13 388.372 572.223 C 402.15 558.509 417.78 555.487 436.461 556.053 z" fill="url(#Gradient1)"></path>
<path d="M 611.268 680.637 L 609.906 680.662 C 555.963 681.295 501.795 680.152 447.829 680.828 C 437.046 680.963 426.338 681.261 415.749 679.049 C 365.051 668.459 354.495 606.13 388.372 572.223 C 402.15 558.509 417.78 555.487 436.461 556.053 C 442.114 557.749 445.846 557.26 451.596 559.27 C 451.374 559.614 451.136 559.948 450.929 560.301 C 443.688 572.638 442.823 635.405 443.429 651.913 C 443.676 658.65 447.746 669.588 445.717 675.637 C 445.264 676.987 444.658 678.061 443.268 678.441 C 441.105 679.033 439.105 678.778 436.902 678.781 C 434.98 678.784 435.679 678.753 433.579 679.516 L 554.223 679.978 C 564.312 680.005 603.236 679.463 611.268 680.637 z" fill="rgb(48,189,239)"></path>
<path d="M 937.088 557.627 C 930.325 568.693 918.521 577.306 911.094 588.072 C 876.908 637.631 848.56 699.288 858.997 760.775 C 861.162 773.065 867.045 787.89 875.816 796.219 C 876.844 797.196 884.114 804.533 884.391 804.899 L 879.024 808.874 C 856.237 809.86 827.385 809.055 804.179 809.041 L 662.75 808.934 L 583.754 808.849 C 567.484 808.829 546.257 810.154 530.663 806.797 C 484.29 796.311 480.955 725.067 526.191 711.324 C 545.103 705.578 578.833 707.815 599.31 707.733 L 730.625 707.495 C 755.061 707.574 779.562 707.971 803.985 707.52 C 826.159 707.11 820.235 696.145 821.37 681.163 C 823.465 678.685 829.457 664.648 831.805 660.376 C 853.322 621.233 895.758 575.538 937.088 557.627 z" fill="rgb(68,35,138)"></path>
</svg>
